<mxfile host="app.diagrams.net" modified="2020-11-20T08:54:51.287Z" agent="5.0 (Macintosh; Intel Mac OS X 11_0_0) AppleWebKit/537.36 (KHTML, like Gecko) Chrome/86.0.4240.193 Safari/537.36" etag="7egYlH-z5AykRmKCvll-" version="13.10.0" type="github">
  <diagram id="PMrTdmEJlvDWi1gQ9ZyN" name="Page-1">
    <mxGraphModel dx="946" dy="614" grid="0" gridSize="10" guides="0" tooltips="1" connect="1" arrows="1" fold="1" page="1" pageScale="1" pageWidth="827" pageHeight="1169" math="0" shadow="0">
      <root>
        <mxCell id="0" />
        <mxCell id="1" parent="0" />
        <mxCell id="dMAWA9YpJZ8AsO6JO4ka-7" style="edgeStyle=orthogonalEdgeStyle;rounded=0;orthogonalLoop=1;jettySize=auto;html=1;exitX=0.5;exitY=1;exitDx=0;exitDy=0;" parent="1" source="dMAWA9YpJZ8AsO6JO4ka-1" target="dMAWA9YpJZ8AsO6JO4ka-6" edge="1">
          <mxGeometry relative="1" as="geometry" />
        </mxCell>
        <mxCell id="dMAWA9YpJZ8AsO6JO4ka-1" value="" style="shape=image;html=1;verticalAlign=top;verticalLabelPosition=bottom;labelBackgroundColor=#ffffff;imageAspect=0;aspect=fixed;image=https://cdn4.iconfinder.com/data/icons/logos-brands-5/24/nginx-128.png" parent="1" vertex="1">
          <mxGeometry x="450" y="160" width="60" height="60" as="geometry" />
        </mxCell>
        <mxCell id="dMAWA9YpJZ8AsO6JO4ka-3" value="" style="edgeStyle=orthogonalEdgeStyle;rounded=0;orthogonalLoop=1;jettySize=auto;html=1;" parent="1" source="dMAWA9YpJZ8AsO6JO4ka-2" target="dMAWA9YpJZ8AsO6JO4ka-1" edge="1">
          <mxGeometry relative="1" as="geometry" />
        </mxCell>
        <mxCell id="dMAWA9YpJZ8AsO6JO4ka-2" value="" style="shape=image;html=1;verticalAlign=top;verticalLabelPosition=bottom;labelBackgroundColor=#ffffff;imageAspect=0;aspect=fixed;image=https://cdn1.iconfinder.com/data/icons/iconnice-vector-icon/31/Vector-icons_77-128.png" parent="1" vertex="1">
          <mxGeometry x="450" y="40" width="60" height="60" as="geometry" />
        </mxCell>
        <mxCell id="dMAWA9YpJZ8AsO6JO4ka-4" value="html" style="shape=image;html=1;verticalAlign=top;verticalLabelPosition=bottom;labelBackgroundColor=#ffffff;imageAspect=0;aspect=fixed;image=https://cdn4.iconfinder.com/data/icons/48x48-free-object-icons/48/Folder.png" parent="1" vertex="1">
          <mxGeometry x="600" y="295" width="60" height="60" as="geometry" />
        </mxCell>
        <mxCell id="dMAWA9YpJZ8AsO6JO4ka-10" style="edgeStyle=orthogonalEdgeStyle;rounded=0;orthogonalLoop=1;jettySize=auto;html=1;" parent="1" source="dMAWA9YpJZ8AsO6JO4ka-6" target="dMAWA9YpJZ8AsO6JO4ka-4" edge="1">
          <mxGeometry relative="1" as="geometry" />
        </mxCell>
        <mxCell id="dMAWA9YpJZ8AsO6JO4ka-6" value="" style="aspect=fixed;perimeter=ellipsePerimeter;html=1;align=center;shadow=0;dashed=0;spacingTop=3;image;image=img/lib/active_directory/generic_server.svg;" parent="1" vertex="1">
          <mxGeometry x="466" y="300" width="28.000000000000004" height="50" as="geometry" />
        </mxCell>
        <mxCell id="dMAWA9YpJZ8AsO6JO4ka-13" style="edgeStyle=orthogonalEdgeStyle;curved=1;rounded=0;orthogonalLoop=1;jettySize=auto;html=1;entryX=0.5;entryY=0;entryDx=0;entryDy=0;" parent="1" source="dMAWA9YpJZ8AsO6JO4ka-11" target="dMAWA9YpJZ8AsO6JO4ka-4" edge="1">
          <mxGeometry relative="1" as="geometry" />
        </mxCell>
        <mxCell id="dMAWA9YpJZ8AsO6JO4ka-11" value="build&amp;nbsp; code" style="outlineConnect=0;dashed=0;verticalLabelPosition=bottom;verticalAlign=top;align=center;html=1;shape=mxgraph.aws3.codebuild;fillColor=#759C3E;gradientColor=none;" parent="1" vertex="1">
          <mxGeometry x="720" y="80" width="49.35" height="60" as="geometry" />
        </mxCell>
        <mxCell id="dMAWA9YpJZ8AsO6JO4ka-17" style="edgeStyle=orthogonalEdgeStyle;curved=1;rounded=0;orthogonalLoop=1;jettySize=auto;html=1;" parent="1" source="dMAWA9YpJZ8AsO6JO4ka-14" target="dMAWA9YpJZ8AsO6JO4ka-2" edge="1">
          <mxGeometry relative="1" as="geometry">
            <Array as="points">
              <mxPoint x="59" y="70" />
            </Array>
          </mxGeometry>
        </mxCell>
        <mxCell id="dMAWA9YpJZ8AsO6JO4ka-14" value="" style="aspect=fixed;perimeter=ellipsePerimeter;html=1;align=center;shadow=0;dashed=0;spacingTop=3;image;image=img/lib/active_directory/user.svg;fillColor=none;" parent="1" vertex="1">
          <mxGeometry x="50" y="90" width="18.5" height="50" as="geometry" />
        </mxCell>
      </root>
    </mxGraphModel>
  </diagram>
</mxfile>
